<?xml version="1.0" encoding="UTF-8" standalone="no"?><!DOCTYPE svg PUBLIC "-//W3C//DTD SVG 1.1//EN" "http://www.w3.org/Graphics/SVG/1.1/DTD/svg11.dtd"><svg width="100%" height="100%" viewBox="0 0 191 189" version="1.1" xmlns="http://www.w3.org/2000/svg" xmlns:xlink="http://www.w3.org/1999/xlink" xml:space="preserve" xmlns:serif="http://www.serif.com/" style="fill-rule:evenodd;clip-rule:evenodd;stroke-linejoin:round;stroke-miterlimit:2;"><ellipse cx="101.403" cy="95.207" rx="61.588" ry="66.991" style="fill:#fff;"/><path d="M114.789,130.428l-21.589,-27.761l-11.461,-0l-0,27.761l-15.095,-0l0,-77.339l38.45,-0c16.634,-0 25.339,11.122 25.339,24.455c0,13.223 -8.261,21.373 -21.15,22.917l24.345,29.967l-18.839,-0Zm0.767,-130.428l-20.178,26.183l-20.428,-26.183c-42.856,9.306 -74.95,47.439 -74.95,93.078c0,52.611 42.644,95.261 95.25,95.261c52.606,-0 95.256,-42.65 95.256,-95.261c-0,-45.639 -32.1,-83.772 -74.95,-93.078" style="fill:#62bc46;fill-rule:nonzero;"/><path d="M114.789,78.317c-0,-8.045 -4.295,-12.561 -10.795,-12.561l-22.255,-0l-0,24.461l21.817,-0c7.05,-0 11.233,-4.85 11.233,-11.9" style="fill:#62bc46;fill-rule:nonzero;"/></svg>